<svg width="12" height="13" viewBox="0 0 12 13" fill="none" xmlns="http://www.w3.org/2000/svg">
<g id="icon-close1">
<path id="Union" fill-rule="evenodd" clip-rule="evenodd" d="M10.0383 11.0331C10.2353 11.2302 10.5548 11.2302 10.7518 11.0331C10.9489 10.8361 10.9489 10.5166 10.7518 10.3196L6.8272 6.39494L10.7517 2.47041C10.9488 2.27336 10.9488 1.95389 10.7517 1.75685C10.5547 1.5598 10.2352 1.5598 10.0382 1.75685L6.11364 5.68138L2.18908 1.75683C1.99204 1.55978 1.67256 1.55978 1.47552 1.75683C1.27848 1.95387 1.27848 2.27334 1.47552 2.47039L5.40008 6.39494L1.47544 10.3196C1.2784 10.5166 1.2784 10.8361 1.47544 11.0331C1.67249 11.2302 1.99196 11.2302 2.189 11.0331L6.11364 7.1085L10.0383 11.0331Z" fill="#FF0000"/>
</g>
</svg>
